<svg xmlns="http://www.w3.org/2000/svg" xmlns:xlink="http://www.w3.org/1999/xlink" width="500" zoomAndPan="magnify" viewBox="0 0 375 374.999991" height="500" preserveAspectRatio="xMidYMid meet" version="1.0"><defs><clipPath id="0254e500e2"><path d="M 235 257 L 257.707031 257 L 257.707031 283 L 235 283 Z M 235 257 " clip-rule="nonzero"/></clipPath><clipPath id="615ed6af04"><path d="M 117.457031 243 L 228 243 L 228 283 L 117.457031 283 Z M 117.457031 243 " clip-rule="nonzero"/></clipPath><clipPath id="dc1f767e81"><path d="M 111.523438 37.5 L 263.773438 37.5 L 263.773438 204.75 L 111.523438 204.75 Z M 111.523438 37.5 " clip-rule="nonzero"/></clipPath></defs><rect x="-37.5" width="450" fill="#ffffff" y="-37.499999" height="449.999989" fill-opacity="1"/><rect x="-37.5" width="450" fill="#ffffff" y="-37.499999" height="449.999989" fill-opacity="1"/><rect x="-37.5" width="450" fill="#000000" y="-37.499999" height="449.999989" fill-opacity="1"/><g clip-path="url(#0254e500e2)"><path fill="#ffffff" d="M 246.484375 257.171875 C 246.144531 257.171875 245.8125 257.242188 245.515625 257.410156 L 236.21875 262.808594 C 235.617188 263.15625 235.25 263.8125 235.25 264.515625 L 235.25 275.289062 C 235.25 275.988281 235.617188 276.648438 236.21875 276.996094 L 238.648438 278.402344 C 239.828125 278.988281 240.261719 278.980469 240.796875 278.980469 C 242.546875 278.980469 243.542969 277.914062 243.542969 276.0625 L 243.542969 265.429688 C 243.542969 265.277344 243.414062 265.171875 243.265625 265.171875 L 242.101562 265.171875 C 241.953125 265.171875 241.824219 265.28125 241.824219 265.429688 L 241.824219 276.066406 C 241.824219 276.886719 240.972656 277.714844 239.59375 277.019531 L 237.070312 275.53125 C 236.980469 275.480469 236.910156 275.394531 236.910156 275.292969 L 236.910156 264.515625 C 236.910156 264.414062 236.980469 264.308594 237.070312 264.257812 L 246.347656 258.878906 C 246.4375 258.828125 246.539062 258.828125 246.625 258.878906 L 255.90625 264.257812 C 255.992188 264.3125 256.0625 264.410156 256.0625 264.515625 L 256.0625 275.292969 C 256.0625 275.394531 256.011719 275.5 255.925781 275.550781 L 246.625 280.929688 C 246.542969 280.976562 246.433594 280.976562 246.347656 280.929688 L 243.960938 279.5 C 243.890625 279.457031 243.792969 279.460938 243.722656 279.5 C 243.0625 279.875 242.941406 279.917969 242.320312 280.136719 C 242.167969 280.1875 241.9375 280.273438 242.402344 280.53125 L 245.519531 282.378906 C 245.816406 282.554688 246.148438 282.636719 246.488281 282.636719 C 246.832031 282.636719 247.15625 282.554688 247.457031 282.378906 L 256.753906 277 C 257.355469 276.648438 257.722656 275.996094 257.722656 275.296875 L 257.722656 264.519531 C 257.722656 263.820312 257.355469 263.160156 256.753906 262.8125 L 247.457031 257.414062 C 247.164062 257.246094 246.828125 257.175781 246.488281 257.175781 Z M 248.972656 264.871094 C 246.324219 264.871094 244.746094 266.003906 244.746094 267.886719 C 244.746094 269.929688 246.3125 270.492188 248.855469 270.746094 C 251.894531 271.042969 252.132812 271.492188 252.132812 272.09375 C 252.132812 273.136719 251.304688 273.582031 249.347656 273.582031 C 246.890625 273.582031 246.347656 272.964844 246.167969 271.734375 C 246.148438 271.605469 246.046875 271.496094 245.914062 271.496094 L 244.703125 271.496094 C 244.628906 271.5 244.566406 271.527344 244.511719 271.582031 C 244.457031 271.632812 244.429688 271.699219 244.429688 271.773438 C 244.429688 273.347656 245.28125 275.207031 249.34375 275.207031 C 252.285156 275.207031 253.984375 274.050781 253.984375 272.011719 C 253.984375 270 252.613281 269.457031 249.757812 269.074219 C 246.878906 268.691406 246.601562 268.503906 246.601562 267.824219 C 246.601562 267.265625 246.832031 266.515625 248.96875 266.515625 C 250.878906 266.515625 251.582031 266.929688 251.871094 268.222656 C 251.898438 268.34375 252.003906 268.441406 252.128906 268.441406 L 253.335938 268.441406 C 253.410156 268.441406 253.480469 268.398438 253.53125 268.34375 C 253.582031 268.285156 253.621094 268.222656 253.613281 268.144531 C 253.425781 265.917969 251.949219 264.871094 248.972656 264.871094 Z M 248.972656 264.871094 " fill-opacity="1" fill-rule="nonzero"/></g><g clip-path="url(#615ed6af04)"><path fill="#ffffff" d="M 191.816406 243.042969 C 191.710938 243.042969 191.613281 243.070312 191.519531 243.125 C 191.324219 243.238281 191.226562 243.410156 191.226562 243.640625 L 191.226562 258.820312 C 191.226562 258.96875 191.15625 259.105469 191.027344 259.179688 C 190.890625 259.257812 190.75 259.257812 190.613281 259.179688 L 188.144531 257.75 C 187.75 257.519531 187.355469 257.519531 186.960938 257.75 L 177.109375 263.464844 C 176.742188 263.679688 176.515625 264.089844 176.515625 264.515625 L 176.515625 275.949219 C 176.515625 276.40625 176.714844 276.75 177.109375 276.980469 L 186.960938 282.695312 C 187.355469 282.925781 187.75 282.925781 188.144531 282.695312 L 197.996094 276.980469 C 198.390625 276.75 198.589844 276.40625 198.589844 275.949219 L 198.589844 247.449219 C 198.589844 247.015625 198.355469 246.609375 197.976562 246.398438 L 192.113281 243.101562 C 192.019531 243.050781 191.917969 243.042969 191.816406 243.042969 Z M 128.441406 257.3125 C 128.253906 257.320312 128.078125 257.351562 127.910156 257.453125 L 118.058594 263.167969 C 117.664062 263.394531 117.464844 263.738281 117.464844 264.199219 L 117.484375 279.539062 C 117.484375 279.753906 117.597656 279.953125 117.78125 280.054688 C 117.964844 280.167969 118.191406 280.167969 118.375 280.054688 L 124.21875 276.683594 C 124.589844 276.460938 124.832031 276.078125 124.832031 275.652344 L 124.832031 268.484375 C 124.832031 268.058594 125.054688 267.667969 125.421875 267.453125 L 127.910156 266.003906 C 128.09375 265.898438 128.292969 265.84375 128.503906 265.847656 C 128.714844 265.84375 128.914062 265.898438 129.09375 266.003906 L 131.582031 267.453125 C 131.949219 267.664062 132.175781 268.058594 132.175781 268.484375 L 132.175781 275.648438 C 132.175781 276.074219 132.421875 276.464844 132.785156 276.679688 L 138.628906 280.054688 C 138.8125 280.164062 139.039062 280.164062 139.222656 280.054688 C 139.402344 279.949219 139.519531 279.753906 139.519531 279.539062 L 139.539062 264.199219 C 139.539062 263.738281 139.34375 263.394531 138.945312 263.167969 L 129.09375 257.453125 C 128.929688 257.355469 128.75 257.320312 128.5625 257.3125 Z M 216.96875 257.453125 C 216.757812 257.453125 216.558594 257.503906 216.375 257.609375 L 206.523438 263.328125 C 206.15625 263.539062 205.929688 263.929688 205.929688 264.359375 L 205.929688 275.789062 C 205.929688 276.21875 206.171875 276.609375 206.542969 276.820312 L 216.316406 282.421875 C 216.675781 282.628906 217.117188 282.644531 217.480469 282.441406 L 223.402344 279.125 C 223.589844 279.019531 223.71875 278.824219 223.71875 278.609375 C 223.71875 278.394531 223.609375 278.199219 223.421875 278.09375 L 213.511719 272.378906 C 213.324219 272.269531 213.195312 272.054688 213.195312 271.84375 L 213.195312 268.265625 C 213.195312 268.054688 213.328125 267.859375 213.511719 267.75 L 216.589844 265.964844 C 216.773438 265.859375 217 265.859375 217.183594 265.964844 L 220.269531 267.75 C 220.46875 267.867188 220.566406 268.039062 220.566406 268.265625 L 220.566406 271.085938 C 220.566406 271.316406 220.664062 271.488281 220.863281 271.601562 C 221.046875 271.707031 221.269531 271.707031 221.457031 271.601562 L 227.359375 268.148438 C 227.722656 267.933594 227.949219 267.542969 227.949219 267.117188 L 227.949219 264.359375 C 227.949219 263.898438 227.753906 263.554688 227.359375 263.324219 L 217.566406 257.609375 C 217.382812 257.503906 217.183594 257.449219 216.972656 257.453125 Z M 187.511719 265.984375 C 187.566406 265.984375 187.621094 266 187.667969 266.027344 L 191.046875 267.992188 C 191.136719 268.042969 191.203125 268.140625 191.203125 268.25 L 191.203125 272.175781 C 191.203125 272.285156 191.136719 272.382812 191.046875 272.433594 L 187.667969 274.398438 C 187.578125 274.453125 187.464844 274.453125 187.375 274.398438 L 183.996094 272.433594 C 183.90625 272.382812 183.839844 272.285156 183.839844 272.175781 L 183.839844 268.25 C 183.839844 268.144531 183.90625 268.046875 183.996094 267.992188 L 187.375 266.027344 C 187.417969 266 187.460938 265.988281 187.511719 265.988281 Z M 187.511719 265.984375 " fill-opacity="1" fill-rule="nonzero"/></g><path fill="#ffffff" d="M 158.035156 257.390625 C 157.824219 257.390625 157.625 257.445312 157.445312 257.550781 L 147.59375 263.246094 C 147.222656 263.460938 147 263.871094 147 264.296875 L 147 275.730469 C 147 276.1875 147.195312 276.53125 147.59375 276.761719 L 157.445312 282.476562 C 157.839844 282.707031 158.234375 282.707031 158.628906 282.476562 L 168.480469 276.761719 C 168.875 276.53125 169.074219 276.1875 169.070312 275.730469 L 169.070312 264.300781 C 169.070312 263.871094 168.847656 263.460938 168.480469 263.246094 L 158.628906 257.550781 C 158.445312 257.445312 158.246094 257.390625 158.035156 257.394531 Z M 216.949219 267.59375 C 216.910156 267.59375 216.867188 267.59375 216.828125 267.613281 L 214.933594 268.722656 C 214.855469 268.765625 214.816406 268.832031 214.816406 268.921875 L 214.816406 271.105469 C 214.816406 271.1875 214.863281 271.261719 214.933594 271.304688 L 216.828125 272.394531 C 216.902344 272.441406 216.972656 272.441406 217.046875 272.394531 L 218.941406 271.304688 C 219.011719 271.261719 219.058594 271.1875 219.058594 271.105469 L 219.058594 268.921875 C 219.058594 268.839844 219.011719 268.765625 218.941406 268.722656 L 217.046875 267.613281 C 217.011719 267.589844 216.988281 267.59375 216.949219 267.59375 Z M 216.949219 267.59375 " fill-opacity="1" fill-rule="nonzero"/><g clip-path="url(#dc1f767e81)"><path fill="#ffffff" d="M 180.621094 39.726562 C 184.804688 37.363281 190.136719 37.355469 194.214844 39.726562 L 256.652344 74.804688 C 260.558594 76.992188 263.171875 81.335938 263.136719 85.820312 L 263.136719 156.160156 C 263.164062 160.832031 260.292969 165.265625 256.171875 167.414062 L 194.066406 202.332031 C 193.007812 202.917969 191.886719 203.351562 190.707031 203.636719 C 189.527344 203.925781 188.332031 204.050781 187.117188 204.015625 C 185.90625 203.984375 184.71875 203.792969 183.554688 203.441406 C 182.394531 203.089844 181.300781 202.59375 180.273438 201.953125 L 161.636719 191.21875 C 160.363281 190.464844 158.9375 189.863281 158.039062 188.640625 C 158.832031 187.578125 160.246094 187.441406 161.394531 186.972656 C 163.988281 186.148438 166.359375 184.886719 168.746094 183.554688 C 169.347656 183.136719 170.082031 183.292969 170.660156 183.667969 L 186.550781 192.828125 C 187.683594 193.480469 188.835938 192.621094 189.808594 192.074219 L 250.789062 157.773438 C 251.542969 157.410156 251.960938 156.617188 251.898438 155.792969 L 251.898438 86.132812 C 251.980469 85.195312 251.441406 84.339844 250.589844 83.960938 L 188.640625 49.191406 C 188.277344 48.941406 187.871094 48.8125 187.425781 48.8125 C 186.984375 48.8125 186.578125 48.9375 186.210938 49.1875 L 124.351562 84.027344 C 123.515625 84.40625 122.941406 85.253906 123.042969 86.191406 L 123.042969 155.851562 C 122.972656 156.675781 123.410156 157.449219 124.167969 157.804688 L 140.699219 167.105469 C 143.804688 168.773438 147.613281 169.710938 151.035156 168.488281 C 151.78125 168.207031 152.46875 167.820312 153.101562 167.328125 C 153.730469 166.835938 154.273438 166.265625 154.726562 165.609375 C 155.179688 164.953125 155.523438 164.242188 155.761719 163.480469 C 155.996094 162.722656 156.113281 161.941406 156.109375 161.144531 L 156.125 91.902344 C 156.050781 90.875 157.023438 90.023438 158.023438 90.128906 L 165.96875 90.128906 C 167.015625 90.101562 167.835938 91.207031 167.695312 92.238281 L 167.679688 161.921875 C 167.683594 168.109375 165.132812 174.84375 159.386719 177.878906 C 152.308594 181.527344 143.558594 180.761719 136.5625 177.253906 L 118.789062 167.460938 C 114.605469 165.375 111.800781 160.875 111.824219 156.207031 L 111.824219 85.867188 C 111.835938 84.722656 111.992188 83.601562 112.304688 82.5 C 112.613281 81.402344 113.0625 80.359375 113.652344 79.378906 C 114.242188 78.398438 114.949219 77.511719 115.777344 76.71875 C 116.605469 75.929688 117.519531 75.257812 118.527344 74.710938 Z M 198.625 88.484375 C 207.65625 87.960938 217.320312 88.140625 225.445312 92.574219 C 231.734375 95.96875 235.21875 103.097656 235.335938 110.070312 C 235.15625 111.007812 234.175781 111.527344 233.277344 111.460938 C 230.660156 111.453125 228.039062 111.496094 225.414062 111.445312 C 224.300781 111.484375 223.65625 110.464844 223.515625 109.484375 C 222.761719 106.152344 220.9375 102.851562 217.792969 101.242188 C 212.960938 98.832031 207.355469 98.949219 202.085938 99.003906 C 198.238281 99.210938 194.105469 99.539062 190.847656 101.789062 C 188.339844 103.5 187.585938 107 188.480469 109.71875 C 189.316406 111.714844 191.632812 112.355469 193.519531 112.949219 C 204.402344 115.785156 215.929688 115.554688 226.609375 119.238281 C 231.027344 120.761719 235.351562 123.71875 236.867188 128.332031 C 238.84375 134.511719 237.980469 141.898438 233.574219 146.859375 C 229.996094 150.945312 224.792969 153.109375 219.589844 154.371094 C 212.671875 155.910156 205.5 155.945312 198.480469 155.257812 C 191.878906 154.507812 185.007812 152.777344 179.910156 148.296875 C 175.550781 144.523438 173.429688 138.648438 173.636719 132.976562 C 173.691406 132.019531 174.648438 131.351562 175.574219 131.429688 L 183.414062 131.429688 C 184.46875 131.359375 185.242188 132.265625 185.296875 133.253906 C 185.78125 136.378906 186.980469 139.765625 189.761719 141.589844 C 195.125 145.039062 201.851562 144.800781 207.988281 144.898438 C 213.074219 144.675781 218.785156 144.609375 222.941406 141.253906 C 225.136719 139.339844 225.777344 136.144531 225.1875 133.394531 C 224.546875 131.070312 222.050781 129.992188 219.960938 129.226562 C 209.21875 125.839844 197.558594 127.070312 186.921875 123.234375 C 182.605469 121.714844 178.425781 118.835938 176.769531 114.414062 C 174.453125 108.160156 175.515625 100.414062 180.390625 95.621094 C 185.097656 90.851562 191.996094 89.015625 198.53125 88.359375 Z M 198.625 88.484375 " fill-opacity="1" fill-rule="nonzero"/></g></svg>