<svg xmlns="http://www.w3.org/2000/svg" xmlns:xlink="http://www.w3.org/1999/xlink" width="500" zoomAndPan="magnify" viewBox="0 0 375 374.999991" height="500" preserveAspectRatio="xMidYMid meet" version="1.0"><defs><g/><clipPath id="3d9704742d"><path d="M 96.226562 99 L 278 99 L 278 194 L 96.226562 194 Z M 96.226562 99 " clip-rule="nonzero"/></clipPath></defs><rect x="-37.5" width="450" fill="#ffffff" y="-37.499999" height="449.999989" fill-opacity="1"/><rect x="-37.5" width="450" fill="#000000" y="-37.499999" height="449.999989" fill-opacity="1"/><g clip-path="url(#3d9704742d)"><path fill="#ffffff" d="M 95.890625 184.96875 L 101.875 184.96875 L 101.875 161.210938 L 111.222656 181.925781 C 112.28125 184.414062 113.804688 185.335938 116.75 185.335938 C 119.695312 185.335938 121.125 184.414062 122.21875 181.925781 L 131.523438 161.210938 L 131.523438 184.96875 L 137.554688 184.96875 L 137.554688 161.210938 C 137.554688 158.902344 136.632812 157.792969 134.699219 157.195312 C 130.140625 155.808594 127.101562 157.007812 125.71875 160.097656 L 116.558594 180.585938 L 107.714844 160.097656 C 106.378906 157.007812 103.292969 155.808594 98.6875 157.195312 C 96.800781 157.792969 95.878906 158.902344 95.878906 161.210938 L 95.878906 184.96875 Z M 142.539062 165.636719 L 148.570312 165.636719 L 148.570312 178.695312 C 148.523438 179.433594 148.800781 181.09375 152.078125 181.140625 C 153.78125 181.1875 165.066406 181.140625 165.15625 181.140625 L 165.15625 165.546875 L 171.1875 165.546875 L 171.1875 186.90625 C 171.1875 192.167969 164.6875 193.320312 161.65625 193.367188 L 142.6875 193.367188 L 142.6875 189.355469 L 161.703125 189.355469 C 165.574219 188.9375 165.113281 187 165.113281 186.355469 L 165.113281 184.785156 L 152.355469 184.785156 C 146.414062 184.738281 142.59375 182.109375 142.546875 179.109375 L 142.546875 165.636719 Z M 271.929688 150.503906 C 268.246094 150.410156 265.390625 150.78125 262.996094 151.796875 C 262.308594 152.074219 261.199219 152.074219 261.109375 152.949219 C 261.476562 153.316406 261.523438 153.917969 261.847656 154.425781 C 262.398438 155.351562 263.367188 156.59375 264.242188 157.242188 C 265.207031 157.980469 266.175781 158.71875 267.1875 159.363281 C 268.984375 160.46875 271.007812 161.117188 272.757812 162.222656 C 273.773438 162.871094 274.785156 163.699219 275.796875 164.394531 C 276.3125 164.761719 276.625 165.363281 277.269531 165.59375 L 277.269531 165.453125 C 276.949219 165.039062 276.855469 164.441406 276.535156 163.976562 C 276.074219 163.515625 275.613281 163.097656 275.152344 162.640625 C 273.816406 160.839844 272.160156 159.269531 270.363281 157.980469 C 268.890625 156.964844 265.667969 155.582031 265.070312 153.875 L 264.976562 153.78125 C 265.988281 153.6875 267.1875 153.320312 268.15625 153.042969 C 269.722656 152.628906 271.148438 152.71875 272.757812 152.304688 C 273.496094 152.117188 274.230469 151.890625 274.96875 151.660156 L 274.96875 151.246094 C 274.140625 150.414062 273.542969 149.308594 272.667969 148.523438 C 270.320312 146.492188 267.738281 144.507812 265.070312 142.847656 C 263.640625 141.925781 261.800781 141.324219 260.28125 140.542969 C 259.726562 140.265625 258.804688 140.125 258.484375 139.664062 C 257.652344 138.652344 257.195312 137.3125 256.59375 136.113281 C 255.261719 133.574219 253.972656 130.761719 252.820312 128.085938 C 251.992188 126.285156 251.484375 124.484375 250.472656 122.824219 C 245.730469 114.980469 240.570312 110.230469 232.648438 105.570312 C 230.945312 104.601562 228.921875 104.183594 226.765625 103.675781 L 223.3125 103.488281 C 222.574219 103.167969 221.839844 102.289062 221.195312 101.875 C 218.570312 100.214844 211.800781 96.617188 209.867188 101.367188 C 208.621094 104.367188 211.707031 107.320312 212.753906 108.84375 C 213.539062 109.902344 214.550781 111.101562 215.105469 112.300781 C 215.414062 113.085938 215.519531 113.917969 215.839844 114.75 C 216.578125 116.777344 217.269531 119.039062 218.234375 120.933594 C 218.753906 121.902344 219.292969 122.917969 219.9375 123.792969 C 220.308594 124.300781 220.953125 124.53125 221.089844 125.363281 C 220.445312 126.285156 220.398438 127.667969 220.03125 128.824219 C 218.375 134.039062 219.019531 140.496094 221.367188 144.324219 C 222.105469 145.476562 223.84375 148.015625 226.203125 147.046875 C 228.273438 146.214844 227.8125 143.585938 228.410156 141.277344 C 228.550781 140.726562 228.457031 140.355469 228.734375 139.988281 L 228.734375 140.078125 L 230.621094 143.910156 C 232.050781 146.167969 234.535156 148.523438 236.609375 150.09375 C 237.710938 150.921875 238.585938 152.355469 239.96875 152.859375 L 239.96875 152.722656 L 239.878906 152.722656 C 239.601562 152.308594 239.1875 152.121094 238.816406 151.800781 C 237.988281 150.96875 237.070312 149.953125 236.421875 149.03125 C 234.492188 146.449219 232.789062 143.585938 231.265625 140.632812 C 230.527344 139.203125 229.882812 137.636719 229.289062 136.203125 C 229.007812 135.652344 229.007812 134.820312 228.550781 134.542969 C 227.859375 135.558594 226.847656 136.4375 226.339844 137.679688 C 225.460938 139.664062 225.371094 142.109375 225.050781 144.648438 C 224.863281 144.695312 224.945312 144.648438 224.863281 144.742188 C 223.390625 144.371094 222.882812 142.847656 222.332031 141.558594 C 220.953125 138.28125 220.71875 133.023438 221.917969 129.238281 C 222.238281 128.269531 223.621094 125.226562 223.070312 124.300781 C 222.792969 123.425781 221.875 122.917969 221.367188 122.226562 C 220.765625 121.347656 220.125 120.242188 219.707031 119.273438 C 218.605469 116.6875 218.050781 113.828125 216.855469 111.246094 C 216.300781 110.046875 215.332031 108.800781 214.550781 107.691406 C 213.675781 106.445312 212.710938 105.570312 212.019531 104.09375 C 211.789062 103.585938 211.464844 102.753906 211.835938 102.203125 C 211.925781 101.832031 212.113281 101.695312 212.476562 101.601562 C 213.078125 101.09375 214.78125 101.742188 215.378906 102.015625 C 217.082031 102.707031 218.511719 103.355469 219.9375 104.320312 C 220.582031 104.78125 221.273438 105.660156 222.101562 105.890625 L 223.070312 105.890625 C 224.546875 106.214844 226.203125 105.984375 227.582031 106.398438 C 230.023438 107.183594 232.230469 108.335938 234.214844 109.582031 C 240.246094 113.414062 245.21875 118.855469 248.582031 125.363281 C 249.132812 126.425781 249.363281 127.394531 249.871094 128.5 C 250.839844 130.761719 252.035156 133.066406 253 135.285156 C 253.96875 137.453125 254.890625 139.667969 256.269531 141.46875 C 256.960938 142.4375 259.722656 142.945312 260.964844 143.453125 C 261.886719 143.867188 263.316406 144.238281 264.144531 144.746094 C 265.710938 145.714844 267.277344 146.820312 268.75 147.882812 C 269.484375 148.433594 271.789062 149.589844 271.925781 150.507812 Z M 224.96875 110.410156 C 224.332031 110.40625 223.703125 110.480469 223.082031 110.640625 L 223.082031 110.734375 L 223.175781 110.734375 C 223.542969 111.472656 224.1875 111.980469 224.648438 112.625 L 225.707031 114.839844 L 225.800781 114.75 C 226.445312 114.285156 226.765625 113.546875 226.765625 112.441406 C 226.492188 112.121094 226.445312 111.796875 226.214844 111.472656 C 225.9375 111.011719 225.339844 110.78125 224.96875 110.414062 Z M 224.96875 110.410156 " fill-opacity="1" fill-rule="evenodd"/></g><path fill="#ffffff" d="M 175.785156 184.96875 L 193.097656 184.96875 C 195.125 184.96875 197.0625 184.554688 198.625 183.816406 C 201.25 182.617188 202.492188 181.003906 202.492188 178.878906 L 202.492188 174.453125 C 202.492188 172.746094 201.066406 171.128906 198.210938 170.023438 C 196.738281 169.46875 194.894531 169.144531 193.101562 169.144531 L 185.824219 169.144531 C 183.382812 169.144531 182.234375 168.40625 181.910156 166.792969 C 181.863281 166.609375 181.863281 166.425781 181.863281 166.238281 L 181.863281 163.515625 C 181.863281 163.378906 181.863281 163.195312 181.910156 163.011719 C 182.230469 161.765625 182.875 161.441406 185.007812 161.210938 L 202.734375 161.210938 L 202.734375 157.195312 L 185.878906 157.195312 C 183.4375 157.195312 182.148438 157.335938 181 157.703125 C 177.453125 158.8125 175.886719 160.566406 175.886719 163.65625 L 175.886719 167.164062 C 175.886719 169.882812 178.925781 172.191406 184.082031 172.746094 C 184.636719 172.792969 185.234375 172.792969 185.832031 172.792969 L 192.050781 172.792969 C 192.28125 172.792969 192.507812 172.792969 192.691406 172.839844 C 194.582031 173.023438 195.410156 173.34375 195.960938 174.035156 C 196.332031 174.40625 196.425781 174.730469 196.425781 175.144531 L 196.425781 178.648438 C 196.425781 179.0625 196.148438 179.621094 195.59375 180.082031 C 195.042969 180.539062 194.164062 180.863281 193.015625 180.910156 C 192.785156 180.910156 192.648438 180.957031 192.417969 180.957031 L 175.785156 180.957031 Z M 239.976562 178.003906 C 239.976562 182.109375 243.070312 184.414062 249.234375 184.878906 C 249.832031 184.925781 250.382812 184.96875 250.984375 184.96875 L 266.640625 184.96875 L 266.640625 180.957031 L 250.847656 180.957031 C 247.34375 180.957031 246.007812 180.082031 246.007812 177.957031 L 246.007812 157.195312 L 239.960938 157.195312 L 239.960938 178.003906 Z M 206.3125 178.1875 L 206.3125 163.886719 C 206.3125 160.238281 208.890625 158.023438 213.914062 157.332031 C 214.464844 157.285156 215.019531 157.242188 215.523438 157.242188 L 226.941406 157.242188 C 227.542969 157.242188 228.050781 157.285156 228.648438 157.332031 C 233.667969 158.023438 236.199219 160.238281 236.199219 163.886719 L 236.199219 178.1875 C 236.199219 181.140625 235.140625 182.710938 232.652344 183.769531 L 238.546875 189.121094 L 231.59375 189.121094 L 226.804688 184.785156 L 221.96875 185.0625 L 215.523438 185.0625 C 214.335938 185.058594 213.167969 184.902344 212.023438 184.601562 C 208.203125 183.539062 206.3125 181.511719 206.3125 178.1875 Z M 212.804688 177.867188 C 212.804688 178.050781 212.910156 178.234375 212.945312 178.464844 C 213.265625 180.125 214.832031 181.050781 217.226562 181.050781 L 222.660156 181.050781 L 217.6875 176.527344 L 224.640625 176.527344 L 229.015625 180.496094 C 229.847656 180.035156 230.351562 179.386719 230.535156 178.558594 C 230.582031 178.375 230.582031 178.144531 230.582031 177.957031 L 230.582031 164.253906 C 230.582031 164.070312 230.582031 163.886719 230.535156 163.699219 C 230.214844 162.132812 228.648438 161.257812 226.300781 161.257812 L 217.226562 161.257812 C 214.558594 161.257812 212.808594 162.410156 212.808594 164.253906 Z M 212.804688 177.867188 " fill-opacity="1" fill-rule="evenodd"/><g fill="#ffffff" fill-opacity="1"><g transform="translate(129.692878, 271.553358)"><g><path d="M 1.863281 0 L 4.8125 0 L 4.8125 -14.511719 L 4.738281 -21.746094 L 13.242188 -7.535156 L 14.957031 -7.535156 L 23.464844 -21.746094 L 23.386719 -14.511719 L 23.386719 0 L 26.335938 0 L 26.335938 -26.113281 L 23.089844 -26.113281 L 14.101562 -11.152344 L 5.109375 -26.113281 L 1.863281 -26.113281 Z M 1.863281 0 "/></g></g></g><g fill="#ffffff" fill-opacity="1"><g transform="translate(159.326089, 271.553358)"><g><path d="M 2.574219 8.804688 L 5.558594 8.804688 L 16.1875 -17.421875 L 16.1875 -17.71875 L 13.203125 -17.71875 L 9.550781 -8.207031 L 7.871094 -2.945312 L 7.796875 -2.945312 L 6.082031 -8.132812 L 2.277344 -17.71875 L -0.671875 -17.71875 L -0.671875 -17.421875 L 6.339844 -0.296875 L 2.574219 8.691406 Z M 2.574219 8.804688 "/></g></g></g><g fill="#ffffff" fill-opacity="1"><g transform="translate(176.285986, 271.553358)"><g><path d="M 10.707031 0.558594 C 15.332031 0.558594 20.777344 -1.417969 20.777344 -7.160156 C 20.777344 -13.578125 16.078125 -14.101562 11.003906 -14.660156 C 7.722656 -14.996094 4.179688 -14.996094 4.179688 -19.246094 C 4.179688 -22.976562 7.460938 -24.058594 10.632812 -24.058594 C 13.617188 -24.058594 17.046875 -23.089844 17.234375 -19.136719 L 20.03125 -19.136719 C 19.84375 -24.46875 15.59375 -26.671875 10.632812 -26.671875 C 5.929688 -26.671875 1.230469 -24.730469 1.230469 -19.285156 C 1.230469 -13.652344 5.445312 -12.273438 10.371094 -12.011719 C 13.800781 -11.863281 17.753906 -11.488281 17.753906 -7.199219 C 17.753906 -3.507812 13.617188 -2.089844 10.707031 -2.089844 C 7.347656 -2.089844 3.65625 -3.917969 3.65625 -7.574219 L 0.785156 -7.574219 C 0.785156 -1.566406 6.265625 0.558594 10.707031 0.558594 Z M 10.707031 0.558594 "/></g></g></g><g fill="#ffffff" fill-opacity="1"><g transform="translate(199.470729, 271.553358)"><g><path d="M 11.863281 0.523438 C 14.398438 0.523438 16.636719 -0.371094 18.425781 -1.902344 L 19.992188 0 L 22.902344 0 L 22.902344 -0.222656 L 20.070312 -3.730469 C 21.820312 -6.117188 22.867188 -9.324219 22.867188 -13.054688 C 22.867188 -20.925781 18.613281 -26.597656 11.863281 -26.597656 C 5.109375 -26.597656 0.859375 -20.925781 0.859375 -13.054688 C 0.859375 -5.148438 5.484375 0.523438 11.863281 0.523438 Z M 11.863281 -2.089844 C 7.125 -2.089844 3.804688 -6.601562 3.804688 -13.054688 C 3.804688 -19.507812 7.125 -23.984375 11.863281 -23.984375 C 16.597656 -23.984375 19.917969 -19.507812 19.917969 -13.054688 C 19.917969 -10.296875 19.285156 -7.871094 18.242188 -6.042969 L 15.59375 -9.289062 L 12.570312 -9.289062 L 12.570312 -9.101562 L 16.675781 -4.027344 C 15.367188 -2.796875 13.726562 -2.089844 11.863281 -2.089844 Z M 11.863281 -2.089844 "/></g></g></g><g fill="#ffffff" fill-opacity="1"><g transform="translate(225.003764, 271.553358)"><g><path d="M 1.828125 0 L 18.128906 0 L 18.128906 -2.574219 L 4.8125 -2.574219 L 4.8125 -26.113281 L 1.828125 -26.113281 Z M 1.828125 0 "/></g></g></g></svg>